# xmcd CD database file
#
# Track frame offsets:
#	183
#	10970
#	25858
#	43733
#	63583
#	81458
#	94558
#	111033
#	128108
#	149895
#	165833
#	180095
#	193083
#	203520
#	213758
#	229345
#	241820
#
# Disc length: 3400 seconds
#
# Revision: 0
# Processed by: cddbd v1.4PL0 Copyright (c) Steve Scherf et al.
# Submitted via: CDex 1.50beta9
#
DISCID=e00d4611
DTITLE=Pony Express - 10 Jahre auf Tour
DYEAR=1991
DGENRE=Country
TTITLE0=Southern Girl
TTITLE1=Cotton Fields
TTITLE2=Americana
TTITLE3=Dixie-Medley
TTITLE4=Carolina Mountain Dew
TTITLE5=Della And The Dealer
TTITLE6=Spiel mir das Lied vom Tod
TTITLE7=DixielandYou Made Your Stand
TTITLE8=Trucker-Medley
TTITLE9=The Devil Went Down To Georgia
TTITLE10=Ring Of Fire
TTITLE11=Swinging
TTITLE12=Urlaub
TTITLE13=Ich bohr nach Oel
TTITLE14=Ich steh im Stau
TTITLE15=Recht muss Recht bleiben
TTITLE16=Zwei Wochen auf Achse
EXTD=YEAR: 1991
EXTT0=
EXTT1=
EXTT2=
EXTT3=
EXTT4=
EXTT5=
EXTT6=
EXTT7=
EXTT8=
EXTT9=
EXTT10=
EXTT11=
EXTT12=
EXTT13=
EXTT14=
EXTT15=
EXTT16=
PLAYORDER=
